<svg t="1714381488575" class="icon" viewBox="0 0 1024 1024" version="1.1" xmlns="http://www.w3.org/2000/svg" p-id="1513" width="200" height="200"><path d="M22.26087 28.315826m133.565217 0l712.347826 0q133.565217 0 133.565217 133.565217l0 712.347827q0 133.565217-133.565217 133.565217l-712.347826 0q-133.565217 0-133.565217-133.565217l0-712.347827q0-133.565217 133.565217-133.565217Z" fill="#71CA94" p-id="1514"></path><path d="M584.793043 547.795478h-188.326956c-60.326957 0-110.502957-47.994435-110.502957-109.078261 0-60.994783 50.176-109.033739 110.502957-109.033739h313.922783c15.270957 0 27.603478 13.356522 27.603478 29.740522 0 16.473043-12.332522 29.740522-27.603478 29.740522h-313.878261c-31.209739 0-55.296 23.017739-55.296 49.597217 0 26.534957 24.041739 49.552696 55.251478 49.552696h231.067826c60.326957 0 110.502957 47.994435 110.502957 109.078261 0 60.994783-50.176 109.033739-110.502957 109.033739H313.61113c-15.270957 0-27.603478-13.356522-27.603478-29.740522 0-16.473043 12.332522-29.740522 27.603478-29.740522h313.878261c31.209739 0 55.296-23.017739 55.296-49.597217 0-26.534957-24.041739-49.552696-55.251478-49.552696h-42.74087z" fill="#FFFFFF" p-id="1515"></path></svg>