<?xml version="1.0" ?><!DOCTYPE svg  PUBLIC '-//W3C//DTD SVG 1.1//EN'  'http://www.w3.org/Graphics/SVG/1.1/DTD/svg11.dtd'><svg height="2048px" style="shape-rendering:geometricPrecision; text-rendering:geometricPrecision; image-rendering:optimizeQuality; fill-rule:evenodd; clip-rule:evenodd" viewBox="0 0 2048 2048" width="2048px" xml:space="preserve" xmlns="http://www.w3.org/2000/svg" xmlns:xlink="http://www.w3.org/1999/xlink"><defs><style type="text/css">
   <![CDATA[
    .fil9 {fill:none}
    .fil7 {fill:#198C78}
    .fil3 {fill:#60801B}
    .fil6 {fill:#7A627B}
    .fil8 {fill:#7FCCB2}
    .fil2 {fill:#9DD7E2}
    .fil4 {fill:#D86160}
    .fil5 {fill:#E46596}
    .fil1 {fill:#EAC26B}
    .fil0 {fill:#333333;fill-rule:nonzero}
   ]]>
  </style></defs><g id="Layer_x0020_1"><g id="_509546912"><g><path class="fil0" d="M726.399 1507.1l15.4595 -4.11496 15.365 -4.09016 4.11378 15.4595 39.137 147.041c6.03189,22.6547 20.8146,40.8024 39.7713,51.789 15.3827,8.91497 33.4902,13.1079 51.8847,11.1709l-0.131102 -1.71851 14.674 -1.11496c21.9236,-6.28111 39.4961,-20.8181 50.23,-39.3366 11.0091,-18.9945 14.8193,-42.1453 8.77442,-64.8615l-0.0011811 -0.00590552 -39.137 -147.038 -4.09016 -15.365 15.4595 -4.11496 15.365 -4.09016 8.20394 30.8256 35.0504 131.676 0.0011811 0.00472441c8.29961,31.1953 3.09921,62.9292 -11.9646,88.9182 -12.9591,22.3606 -33.2303,40.5048 -58.5012,50.4508l0.0602363 0.785434 -12.9024 3.43465c-31.1965,8.30197 -62.9315,3.1063 -88.9253,-11.9587 -26.0303,-15.0862 -46.35,-40.0807 -54.6697,-71.341l-35.0233 -131.582 -8.20394 -30.8244zm26.3433 -813.773l-15.4606 4.11496 -15.3638 4.09016 -4.11614 -15.4583 -39.1394 -147.045c-6.02835,-22.6536 -20.8146,-40.8012 -39.7725,-51.789 -18.9957,-11.0079 -42.1477,-14.8169 -64.8638,-8.76969l-0.214961 0.056693c-22.5543,6.06615 -40.624,20.8158 -51.5776,39.7146 -11.0091,18.9957 -14.8193,42.1453 -8.77324,64.8615l39.1394 147.044 4.09134 15.365 -15.4606 4.11378 -15.365 4.09016 -8.20394 -30.8244 -35.0492 -131.679c-8.30434,-31.1941 -3.10512,-62.9292 11.9587,-88.9217 15.0874,-26.0292 40.0831,-46.35 71.3434,-54.6709l8.13071 -2.1626 0.292914 0.250394c28.4315,-5.3752 56.8441,0.16063 80.5016,13.8709 26.0315,15.0851 46.3512,40.0807 54.6721,71.3398l35.0244 131.584 8.20631 30.8244zm-228.921 52.7056l15.4595 -4.11496 15.365 -4.08898 4.11378 15.4571 196.429 737.973 4.09134 15.365 -15.4606 4.11614 -15.3638 4.08898 -8.20512 -30.8244 -188.225 -707.149 -8.20394 -30.8233zm237.125 -21.8811l188.225 707.147 8.20394 30.8244 -15.4595 4.11496 -15.3638 4.08898 -4.11496 -15.4583 -196.43 -737.972 -4.08898 -15.3638 15.4595 -4.11496 15.365 -4.09016 8.20394 30.8244z" id="_509549168"/><path class="fil0" d="M1295.24 1354.68l15.4595 -4.11496 15.365 -4.09016 4.11378 15.4595 39.1382 147.041c6.03071,22.6547 20.8134,40.8024 39.7713,51.789 15.3815,8.91497 33.489,13.1079 51.8835,11.1709l-0.131102 -1.71851 14.674 -1.11496c21.9236,-6.28111 39.4961,-20.8181 50.23,-39.3366 11.0102,-18.9945 14.8205,-42.1453 8.77442,-64.8615l0 -0.00590552 -39.1382 -147.038 -4.09016 -15.365 15.4595 -4.11496 15.365 -4.09016 8.20394 30.8256 35.0504 131.676 0.0011811 0.00472441c8.29961,31.1953 3.09921,62.9292 -11.9646,88.9182 -12.9579,22.3606 -33.2303,40.5048 -58.5,50.4508l0.0590552 0.785434 -12.9024 3.43465c-31.1965,8.30197 -62.9315,3.1063 -88.9253,-11.9587 -26.0303,-15.0862 -46.35,-40.0807 -54.6697,-71.341l-35.0233 -131.582 -8.20394 -30.8244zm26.3433 -813.773l-15.4606 4.11496 -15.3638 4.09134 -4.11496 -15.4595 -39.1406 -147.045c-6.02835,-22.6536 -20.8134,-40.8012 -39.7713,-51.789 -18.9969,-11.0079 -42.1489,-14.8169 -64.865,-8.76969l-0.21378 0.056693c-22.5543,6.06615 -40.6252,20.8158 -51.5776,39.7146 -11.0102,18.9957 -14.8205,42.1453 -8.77442,64.8615l39.1406 147.044 4.09016 15.365 -15.4595 4.11378 -15.365 4.09016 -8.20394 -30.8244 -35.0504 -131.679c-8.30434,-31.1941 -3.10512,-62.9292 11.9599,-88.9217 15.0862,-26.0292 40.0831,-46.35 71.3434,-54.6709l8.13071 -2.1626 0.291733 0.250394c28.4327,-5.3752 56.8453,0.16063 80.5028,13.8709 26.0315,15.0851 46.3512,40.0807 54.6721,71.3398l35.0244 131.584 8.20512 30.8244zm-228.921 52.7056l15.4595 -4.11496 15.365 -4.08898 4.11496 15.4583 196.429 737.972 4.09134 15.365 -15.4606 4.11614 -15.3638 4.08898 -8.20512 -30.8244 -188.225 -707.149 -8.20512 -30.8233zm237.125 -21.8811l188.225 707.147 8.20394 30.8244 -15.4595 4.11496 -15.3626 4.08898 -4.11614 -15.4583 -196.43 -737.972 -4.08898 -15.3626 15.4595 -4.11614 15.365 -4.09016 8.20394 30.8244z" id="_509549096"/></g><g><path class="fil0" d="M540.904 726.415l4.11496 15.4595 4.09016 15.365 -15.4595 4.11378 -147.041 39.137c-22.6547,6.03189 -40.8024,20.8146 -51.789,39.7713 -8.91497,15.3827 -13.1079,33.4902 -11.1709,51.8847l1.71851 -0.131102 1.11496 14.674c6.28111,21.9236 20.8181,39.4961 39.3366,50.23 18.9945,11.0091 42.1453,14.8193 64.8615,8.77442l0.00590552 -0.0011811 147.038 -39.137 15.365 -4.09016 4.11496 15.4595 4.09016 15.365 -30.8256 8.20394 -131.676 35.0504 -0.00472441 0.0011811c-31.1953,8.29961 -62.9292,3.09921 -88.9182,-11.9646 -22.3606,-12.9591 -40.5048,-33.2303 -50.4508,-58.5012l-0.785434 0.0602363 -3.43465 -12.9024c-8.30197,-31.1965 -3.1063,-62.9315 11.9587,-88.9253 15.0862,-26.0303 40.0807,-46.35 71.341,-54.6697l131.582 -35.0233 30.8244 -8.20394zm813.773 26.3433l-4.11496 -15.4606 -4.09016 -15.3638 15.4583 -4.11614 147.045 -39.1394c22.6536,-6.02835 40.8012,-20.8146 51.789,-39.7725 11.0079,-18.9957 14.8169,-42.1477 8.76969,-64.8638l-0.056693 -0.214961c-6.06615,-22.5543 -20.8158,-40.624 -39.7146,-51.5776 -18.9957,-11.0091 -42.1453,-14.8193 -64.8615,-8.77324l-147.044 39.1394 -15.365 4.09134 -4.11378 -15.4606 -4.09016 -15.365 30.8244 -8.20394 131.679 -35.0492c31.1941,-8.30434 62.9292,-3.10512 88.9217,11.9587 26.0292,15.0874 46.35,40.0831 54.6709,71.3434l2.1626 8.13071 -0.250394 0.292914c5.3752,28.4315 -0.16063,56.8441 -13.8709,80.5016 -15.0851,26.0315 -40.0807,46.3512 -71.3398,54.6721l-131.584 35.0244 -30.8244 8.20631zm-52.7056 -228.921l4.11496 15.4595 4.08898 15.365 -15.4571 4.11378 -737.973 196.429 -15.365 4.09134 -4.11614 -15.4606 -4.08898 -15.3638 30.8244 -8.20512 707.149 -188.225 30.8233 -8.20394zm21.8811 237.125l-707.147 188.225 -30.8244 8.20394 -4.11496 -15.4595 -4.08898 -15.3638 15.4583 -4.11496 737.972 -196.43 15.3638 -4.08898 4.11496 15.4595 4.09016 15.365 -30.8244 8.20394z" id="_509548256"/><path class="fil0" d="M693.324 1295.25l4.11496 15.4595 4.09016 15.365 -15.4595 4.11378 -147.041 39.1382c-22.6547,6.03071 -40.8024,20.8134 -51.789,39.7713 -8.91497,15.3815 -13.1079,33.489 -11.1709,51.8835l1.71851 -0.131102 1.11496 14.674c6.28111,21.9236 20.8181,39.4961 39.3366,50.23 18.9945,11.0102 42.1453,14.8205 64.8615,8.77442l0.00590552 0 147.038 -39.1382 15.365 -4.09016 4.11496 15.4595 4.09016 15.365 -30.8256 8.20394 -131.676 35.0504 -0.00472441 0.0011811c-31.1953,8.29961 -62.9292,3.09921 -88.9182,-11.9646 -22.3606,-12.9579 -40.5048,-33.2303 -50.4508,-58.5l-0.785434 0.0590552 -3.43465 -12.9024c-8.30197,-31.1965 -3.1063,-62.9315 11.9587,-88.9253 15.0862,-26.0303 40.0807,-46.35 71.341,-54.6697l131.582 -35.0233 30.8244 -8.20394zm813.773 26.3433l-4.11496 -15.4606 -4.09134 -15.3638 15.4595 -4.11496 147.045 -39.1406c22.6536,-6.02835 40.8012,-20.8134 51.789,-39.7713 11.0079,-18.9969 14.8169,-42.1489 8.76969,-64.865l-0.056693 -0.21378c-6.06615,-22.5543 -20.8158,-40.6252 -39.7146,-51.5776 -18.9957,-11.0102 -42.1453,-14.8205 -64.8615,-8.77442l-147.044 39.1406 -15.365 4.09016 -4.11378 -15.4595 -4.09016 -15.365 30.8244 -8.20394 131.679 -35.0504c31.1941,-8.30434 62.9292,-3.10512 88.9217,11.9599 26.0292,15.0862 46.35,40.0831 54.6709,71.3434l2.1626 8.13071 -0.250394 0.291733c5.3752,28.4327 -0.16063,56.8453 -13.8709,80.5028 -15.0851,26.0315 -40.0807,46.3512 -71.3398,54.6721l-131.584 35.0244 -30.8244 8.20512zm-52.7056 -228.921l4.11496 15.4595 4.08898 15.365 -15.4583 4.11496 -737.972 196.429 -15.365 4.09134 -4.11614 -15.4606 -4.08898 -15.3638 30.8244 -8.20512 707.149 -188.225 30.8233 -8.20512zm21.8811 237.125l-707.147 188.225 -30.8244 8.20394 -4.11496 -15.4595 -4.08898 -15.3626 15.4583 -4.11614 737.972 -196.43 15.3626 -4.08898 4.11614 15.4595 4.09016 15.365 -30.8244 8.20394z" id="_509548160"/></g><path class="fil1" d="M1247.5 386.603c-6.03189,-22.6512 -20.8158,-40.7977 -39.7737,-51.7878 -18.9969,-11.0079 -42.1489,-14.8169 -64.8674,-8.76733l-0.212599 0.0543308c-22.5543,6.06733 -40.624,20.8158 -51.5752,39.7146 -11.0114,18.9969 -14.8228,42.1441 -8.77442,64.8615l37.689 141.597 151.16 -40.2355 14.0669 -3.7441 -37.7126 -141.692z" id="_509548016"/><polygon class="fil1" id="_509548568" points="1323.85,760.96 1180.38,799.15 1271.47,1141.37 1423.57,1100.88 1436.7,1097.39 1345.6,755.17 "/><path class="fil1" d="M1534.52 1464.89l0 0zm-58.2473 -135.092l-144.413 38.439 37.4551 140.733c6.03426,22.6547 20.8158,40.8024 39.7725,51.7878 15.3815,8.91497 33.489,13.1091 51.8847,11.1697l-0.129921 -1.71614 14.674 -1.11732c21.9225,-6.27993 39.4937,-20.8193 50.2288,-39.3343 11.0079,-18.9957 14.8181,-42.1465 8.7756,-64.8697l-37.4339 -140.632 -20.8134 5.53937z" id="_509547944"/><polygon class="fil2" id="_509547872" points="799.132,867.621 1141.35,776.532 1100.86,624.43 1097.37,611.305 755.154,702.394 760.943,724.15 "/><path class="fil2" d="M1329.78 571.73l38.439 144.413 140.753 -37.4634c22.6512,-6.03189 40.7977,-20.8158 51.7878,-39.7737 11.0079,-18.9969 14.8169,-42.1489 8.76733,-64.8662l-0.0543308 -0.21378c-6.06733,-22.5543 -20.8158,-40.6229 -39.7146,-51.5752 -18.9969,-11.0102 -42.1441,-14.8217 -64.8615,-8.77324l-140.656 37.4374 5.53937 20.8146z" id="_509547968"/><polygon class="fil3" id="_509547320" points="1337.4,724.348 1294.84,564.472 1293.42,559.12 1128.19,603.1 1172.17,768.327 1331.11,726.022 "/><polygon class="fil4" id="_509547128" points="1444.9,1128.21 1279.67,1172.19 1323.65,1337.42 1483.53,1294.86 1488.88,1293.44 "/><path class="fil5" d="M1475.72 1120.01l42.287 158.87 1.69252 6.3567 141.693 -37.7126c22.6512,-6.03189 40.7977,-20.8158 51.7878,-39.7737 11.0079,-18.9969 14.8169,-42.1489 8.76733,-64.8674l-0.0543308 -0.212599c-6.06733,-22.5543 -20.8158,-40.624 -39.7146,-51.5752 -18.9969,-11.0114 -42.1441,-14.8228 -64.8615,-8.77442l-141.598 37.689z" id="_509547488"/><polygon class="fil5" id="_509547752" points="1289.09,1331.58 1248.85,1180.39 906.633,1271.48 949.171,1431.3 950.612,1436.71 1292.83,1345.62 "/><polygon class="fil6" id="_509547584" points="919.789,1444.92 875.809,1279.69 710.581,1323.67 754.561,1488.9 "/><path class="fil5" d="M583.107 1534.53l0 0zm137.144 -50.5335l-40.4929 -152.126 -140.731 37.454c-22.6547,6.03426 -40.8024,20.8158 -51.7878,39.7725 -8.91497,15.3815 -13.1091,33.489 -11.1697,51.8847l1.71614 -0.129921 1.11732 14.674c6.27993,21.9225 20.8193,39.4937 39.3343,50.2288 18.9957,11.0079 42.1465,14.8181 64.8697,8.7756l140.63 -37.4339 -3.48662 -13.0996z" id="_509547632"/><path class="fil2" d="M430.687 965.695l141.571 -37.6855 -40.2343 -151.159 -3.7441 -14.0669 -141.672 37.7055c-22.6547,6.03308 -40.8024,20.8158 -51.7878,39.7725 -8.91497,15.3815 -13.1091,33.4878 -11.1697,51.8835l1.71614 -0.129921 1.11732 14.6752c6.27993,21.9213 20.8193,39.4937 39.3343,50.2276 18.9957,11.0091 42.1465,14.8181 64.8697,8.77678z" id="_509547608"/><polygon class="fil7" id="_509547416" points="559.104,754.577 603.083,919.805 768.31,875.826 726.005,716.892 724.33,710.598 "/><path class="fil8" d="M563.999 720.267l152.126 -40.4929 -37.4622 -140.751c-6.03189,-22.6512 -20.8158,-40.7977 -39.7737,-51.7878 -18.9969,-11.0079 -42.1489,-14.8169 -64.8662,-8.76733l-0.21378 0.0543308c-22.5543,6.06733 -40.6229,20.8158 -51.5752,39.7146 -11.0102,18.9969 -14.8217,42.1441 -8.77324,64.8615l37.4374 140.655 13.1008 -3.48662z" id="_509546504"/><polygon class="fil8" id="_509546432" points="776.514,906.649 616.704,949.188 611.288,950.629 702.377,1292.84 716.419,1289.11 867.604,1248.87 "/><path class="fil8" d="M965.678 1617.31l0 0zm-37.6855 -141.573l-158.869 42.287 -6.3567 1.69252 37.7055 141.673c6.03308,22.6547 20.8158,40.8024 39.7725,51.7878 15.3815,8.91497 33.4878,13.1091 51.8835,11.1697l-0.129921 -1.71614 14.6752 -1.11732c21.9213,-6.27993 39.4937,-20.8193 50.2276,-39.3343 11.0091,-18.9957 14.8181,-42.1465 8.77678,-64.8697l-37.6855 -141.573z" id="_509546552"/></g></g><rect class="fil9" height="2048" width="2048"/></svg>