<svg t="1718684364720" class="icon" viewBox="0 0 1024 1024" version="1.1" xmlns="http://www.w3.org/2000/svg" p-id="11309" width="200" height="200"><path d="M763.776 968.576H261.504C147.456 968.576 55.04 876.16 55.04 762.112V259.84c0-114.048 92.416-206.464 206.464-206.464h502.272C877.824 53.376 970.24 145.792 970.24 259.84v502.272c0 114.048-92.416 206.464-206.464 206.464z" fill="#009CF5" p-id="11310"></path><path d="M529.792 586.496h-100.48l75.648-130.56 7.68-13.312 51.84-89.088 9.984-17.408 21.504-36.864c9.472-16.128 9.728-36.864-1.024-52.096-9.216-13.056-22.4-18.304-35.456-18.304-15.36 0-30.336 7.936-38.784 22.272l-7.68 13.568-7.936-13.568c-8.448-14.336-23.552-22.272-38.784-22.272-7.68 0-15.36 1.792-22.528 5.888-21.248 12.288-28.544 39.808-16.128 61.056l33.408 57.728-135.168 233.216H238.08c-26.88 0.256-48.384 24.064-44.16 52.096 3.328 22.016 23.936 37.376 46.208 37.376h33.92l103.424-0.256H583.936c3.84 0 7.68-1.664 9.984-4.736 11.776-15.744 20.48-40.192-8.32-65.408-15.232-13.44-35.584-19.328-55.808-19.328z" fill="#FFFFFF" p-id="11311"></path><path d="M785.28 586.24h-86.016l-115.072-198.528c-2.048-3.456-6.656-4.608-9.856-2.304-16.128 11.648-25.6 27.904-30.464 45.824-8.192 30.208-1.408 62.592 14.208 89.728l24.704 42.88 13.056 22.784 51.84 89.344 5.376 8.96 49.792 86.016c8.448 14.336 23.296 22.272 38.528 22.272 7.68 0 15.616-2.048 22.784-6.144 21.248-12.288 28.544-39.552 16.128-61.056l-29.056-50.304h36.224c26.88 0 48.256-24.32 43.904-52.352-3.584-21.888-23.936-37.12-46.08-37.12zM319.616 687.616c-15.744-6.4-30.592-5.632-42.496-2.304-6.528 1.792-11.904 6.272-15.232 12.032l-16.64 28.416c-12.544 21.504-5.12 48.768 16.128 61.056 7.168 4.096 15.104 6.144 22.784 6.144 15.36 0 30.08-7.936 38.272-22.272l18.944-32.64c4.608-8.064 5.504-17.792 2.048-26.368-3.84-9.6-11.008-18.816-23.808-24.064z" fill="#FFFFFF" p-id="11312"></path></svg>