<svg xmlns="http://www.w3.org/2000/svg" viewBox="0 0 64 64" id="Bear-Body-1--Streamline-Freehand" height="64" width="64"><desc>Bear Body 1 Streamline Icon: https://streamlinehq.com</desc><g><path d="M11.069066666666666 51.8296Z" fill="currentColor" fill-rule="evenodd" stroke-width="1"></path><path d="M61.5856 21.4936C60.16 17.7272 57.209333333333326 14.738666666666667 53.46133333333333 13.265066666666666C52.66799999999999 12.970666666666666 51.859733333333324 12.718666666666666 51.03973333333333 12.510133333333332C50.184 12.291999999999998 49.313599999999994 12.135466666666666 48.43573333333333 12.041333333333334C46.84266666666666 11.931733333333334 45.242133333333335 12.0192 43.6704 12.3016C40.31173333333333 13.1896 36.9032 13.876533333333334 33.46293333333333 14.358933333333333C33.06373333333333 14.372533333333333 32.75626666666666 14.715733333333333 32.785866666666664 15.113866666666667C32.7848 15.509066666666666 33.121066666666664 15.821333333333332 33.51493333333333 15.790933333333331C37.01226666666666 15.479999999999999 40.489333333333335 14.975999999999999 43.93093333333333 14.2808C45.322399999999995 14.0984 46.73173333333333 14.0984 48.1232 14.2808C48.8576 14.389333333333333 49.581066666666665 14.563733333333333 50.28453333333333 14.8016C51.03973333333333 15.035733333333333 51.742666666666665 15.296266666666668 52.419733333333326 15.582666666666665C55.447466666666664 16.906666666666666 57.79386666666666 19.4224 58.90346666666666 22.535199999999996C60.68666666666667 27.392266666666664 60.958933333333334 32.6752 59.684799999999996 37.690133333333335C59.421866666666666 38.72613333333333 59.09119999999999 39.744 58.6952 40.7368C56.67893333333333 44.76053333333333 54.87973333333333 48.88933333333333 53.30506666666666 53.105599999999995C51.53439999999999 53.105599999999995 49.60746666666666 53.26186666666666 47.75866666666667 53.105599999999995C46.87573333333333 53.03306666666666 46.00266666666667 52.8672 45.154666666666664 52.61066666666666C45.1128 52.129866666666665 45.0432 51.651466666666664 44.9464 51.178666666666665C44.852533333333334 50.700533333333325 44.72213333333333 50.2304 44.555733333333336 49.77253333333333L43.566399999999994 47.16853333333333C43.038399999999996 45.85119999999999 42.62053333333333 44.49253333333333 42.31653333333333 43.106399999999994C41.990399999999994 41.6576 41.990399999999994 40.154399999999995 42.31653333333333 38.7056C42.45226666666667 38.32346666666666 42.2376 37.90613333333333 41.84773333333333 37.794399999999996C41.468266666666665 37.68906666666666 41.071466666666666 37.89306666666666 40.93626666666667 38.26293333333333C40.35466666666666 39.9336 40.15013333333333 41.711999999999996 40.33733333333333 43.470933333333335V44.22613333333334C40.33733333333333 44.4864 40.181066666666666 44.22613333333334 40.10293333333333 44.22613333333334C39.72213333333333 44.26586666666666 39.33813333333333 44.26586666666666 38.95733333333333 44.22613333333334C38.56346666666666 44.22 38.1712 44.176533333333325 37.7856 44.096000000000004H36.61386666666667H34.556533333333334V41.8304C34.5304 41.269866666666665 33.907199999999996 40.94773333333333 33.43493333333333 41.25066666666666C33.282399999999996 41.34826666666666 33.17173333333333 41.49946666666666 33.12453333333333 41.67413333333333C32.785866666666664 43.02826666666667 32.343199999999996 44.27813333333333 32.004799999999996 45.68426666666666C32.004799999999996 46.25706666666666 31.7704 46.83013333333333 31.666133333333335 47.40293333333333S31.510133333333332 48.57466666666666 31.457866666666664 49.14746666666666C31.32773333333333 50.34533333333333 31.223466666666667 51.5432 31.093333333333334 52.74106666666666H27.942666666666668C26.223999999999997 52.74106666666666 24.6096 52.74106666666666 22.969066666666667 52.48053333333333C22.969066666666667 51.67333333333333 22.969066666666667 50.89226666666666 22.760799999999996 50.08506666666666C22.679466666666663 49.52986666666666 22.557599999999997 48.98159999999999 22.396266666666666 48.444533333333325C22.2048 47.86346666666666 21.9696 47.297599999999996 21.693066666666667 46.751999999999995C21.380533333333332 46.17893333333333 21.042133333333332 45.60613333333333 20.677599999999998 45.059466666666665S19.9744 44.096000000000004 19.662133333333333 43.575199999999995L18.438133333333333 40.971199999999996C18.287733333333332 40.42986666666666 17.607999999999997 40.2544 17.214399999999998 40.655199999999994C17.03173333333333 40.84133333333333 16.962133333333334 41.11066666666666 17.031999999999996 41.361866666666664L17.57893333333333 44.53866666666667C17.732533333333333 45.1216 17.9416 45.688266666666664 18.203733333333332 46.2312C18.559199999999997 46.928 18.9504 47.605866666666664 19.375466666666664 48.262133333333324C19.609866666666665 48.67893333333333 19.896266666666666 49.04346666666667 20.104799999999997 49.459999999999994C20.330399999999997 49.86373333333333 20.5304 50.28106666666666 20.703466666666664 50.70986666666667C20.937866666666665 51.3088 21.094133333333332 51.93386666666667 21.276533333333333 52.532799999999995C19.818133333333332 52.532799999999995 18.36 52.376533333333334 16.901866666666663 52.376533333333334C16.156 52.41546666666666 15.408533333333333 52.41546666666666 14.6624 52.376533333333334C14.3128 52.35706666666667 13.964533333333332 52.313599999999994 13.6208 52.2464C13.633866666666666 52.06426666666667 13.633866666666666 51.8816 13.6208 51.699466666666666C13.6208 51.04853333333333 13.6208 50.34533333333333 13.464533333333332 49.66826666666666S13.282399999999999 48.31439999999999 13.152266666666666 47.663466666666665C12.961333333333332 46.70453333333333 12.717866666666666 45.75706666666666 12.422933333333333 44.825066666666665C11.798133333333332 42.768 11.0168 40.76293333333333 10.495999999999999 38.6536C10.34 37.898666666666664 10.209599999999998 37.14346666666667 10.105599999999999 36.36213333333333S10.105599999999999 35.346666666666664 10.105599999999999 34.852L10.6784 35.346666666666664L13.959466666666666 37.66426666666666C14.242133333333332 37.93866666666666 14.692 37.93866666666666 14.974933333333333 37.66426666666666C15.264 37.38746666666667 15.264 36.92533333333333 14.974933333333333 36.64853333333333L11.693866666666667 34.044799999999995C11.042933333333332 33.49786666666667 10.418133333333333 32.8728 9.793066666666666 32.248C9.454666666666666 31.9096 9.090133333333332 31.62293333333333 8.7776 31.284533333333332C7.857066666666666 30.313333333333333 7.0288 29.258399999999998 6.303733333333334 28.133866666666666C5.614933333333333 27.075733333333332 5.121066666666667 25.902666666666665 4.845599999999999 24.6704C4.5717333333333325 23.43173333333333 4.4928 22.157866666666667 4.6112 20.894666666666666L5.053866666666666 19.228266666666666C5.2026666666666666 18.92373333333333 5.333066666666666 18.610666666666667 5.444533333333333 18.29093333333333C5.510666666666666 18.043466666666667 5.510666666666666 17.782933333333332 5.444533333333333 17.535733333333333C5.338933333333333 17.2376 5.1895999999999995 16.956799999999998 5.0018666666666665 16.702399999999997C4.7674666666666665 16.389866666666666 4.4288 16.103466666666666 4.220533333333333 15.790933333333331C3.9698666666666664 15.438133333333333 3.7682666666666664 15.052533333333333 3.6216 14.645333333333333C3.399466666666666 14.2936 3.2736 13.889333333333333 3.2570666666666668 13.4736C3.3269333333333333 12.980266666666667 3.5554666666666663 12.5232 3.9082666666666666 12.171466666666667C4.242666666666667 11.768533333333332 4.672266666666666 11.455466666666666 5.158133333333333 11.260266666666666C5.5008 11.182133333333333 5.8568 11.182133333333333 6.199733333333333 11.260266666666666C7.397333333333333 11.546666666666667 7.579733333333333 12.640266666666665 7.84 12.848533333333332C8.129066666666667 13.145599999999998 8.519733333333333 13.322399999999998 8.933866666666667 13.3432C9.374133333333333 13.407999999999998 9.8216 13.407999999999998 10.261866666666666 13.3432C11.012533333333332 13.152000000000001 11.751733333333334 12.917333333333334 12.475200000000001 12.640266666666665C13.056 12.482666666666667 13.647733333333331 12.3696 14.245866666666666 12.3016C14.843733333333333 12.250666666666667 15.4448 12.250666666666667 16.0424 12.3016C16.9456 12.2944 17.8376 12.499466666666665 18.6464 12.900533333333332C18.8808 12.900533333333332 19.453599999999998 13.447466666666665 19.74 13.603733333333333C19.958399999999997 13.674666666666667 20.188533333333332 13.701333333333332 20.417066666666663 13.681866666666666C20.834133333333334 13.681866666666666 21.227999999999998 13.489866666666666 21.4848 13.161066666666665L21.875466666666668 12.640266666666665L22.656533333333332 11.7288C23.055466666666664 11.369333333333332 23.55573333333333 11.141866666666667 24.0888 11.077866666666667C24.598666666666666 10.994933333333332 25.121866666666666 11.086666666666666 25.573066666666666 11.338133333333333C26.404533333333333 11.811466666666664 26.978399999999997 12.634133333333333 27.135466666666666 13.577599999999999C27.313333333333333 14.450666666666665 26.90133333333333 15.337333333333333 26.119733333333333 15.765066666666666C25.7136 16.014666666666663 25.522399999999998 16.503733333333333 25.651199999999996 16.962666666666664C25.746666666666663 17.2896 25.85973333333333 17.611466666666665 25.9896 17.926133333333333C26.223999999999997 18.4992 26.4584 19.072 26.64053333333333 19.67093333333333S26.849066666666666 20.4 26.92693333333333 20.790666666666667C27.147466666666666 22.022133333333333 27.147466666666666 23.282666666666664 26.92693333333333 24.514133333333334C26.754133333333332 25.70613333333333 26.248799999999996 26.825333333333333 25.4688 27.7432C25.048000000000002 28.204266666666662 25.284 28.947999999999997 25.8936 29.08213333333333C26.17653333333333 29.144266666666667 26.4712 29.050666666666665 26.666666666666664 28.8368C27.6968 27.713866666666664 28.391466666666666 26.324533333333335 28.67173333333333 24.826666666666668C28.9184 23.37893333333333 28.9184 21.899733333333334 28.67173333333333 20.451999999999998C28.613866666666667 19.9936 28.51813333333333 19.540533333333332 28.385333333333335 19.098133333333333C28.202933333333334 18.473066666666664 27.994666666666664 17.848 27.760266666666666 17.197066666666665C28.965866666666663 16.252533333333332 29.55573333333333 14.7224 29.296799999999998 13.213066666666666C29.06773333333333 11.569333333333333 28.111466666666665 10.116 26.6928 9.255199999999999C25.786133333333332 8.6848 24.706666666666667 8.454133333333333 23.64613333333333 8.604C22.61013333333333 8.721599999999999 21.636533333333333 9.1584 20.86 9.853866666666665L20.208799999999997 10.557066666666666L19.766133333333332 10.348799999999999C19.205066666666667 10.073866666666666 18.621333333333332 9.847466666666666 18.0216 9.671733333333332C17.448 9.537866666666666 16.864533333333334 9.450933333333332 16.277066666666666 9.4112C15.540533333333332 9.347466666666666 14.799999999999999 9.347466666666666 14.063733333333333 9.4112C13.316266666666666 9.492533333333332 12.576266666666665 9.632 11.850133333333334 9.828C11.303466666666667 9.984266666666667 10.704533333333332 10.244533333333333 10.105599999999999 10.4008H9.558666666666666C9.486666666666666 10.124533333333332 9.372533333333333 9.861066666666666 9.220266666666666 9.619733333333333C8.6128 9.010933333333334 7.8453333333333335 8.586666666666666 7.0069333333333335 8.395733333333332C6.1575999999999995 8.141066666666667 5.252266666666666 8.141066666666667 4.402933333333333 8.395733333333332C3.382133333333333 8.707999999999998 2.476 9.314933333333332 1.7989333333333333 10.140533333333334C1.0805333333333333 11.015733333333332 0.6770666666666667 12.106933333333332 0.6533333333333333 13.239199999999999C0.608 13.845866666666666 0.6786666666666666 14.455466666666666 0.8615999999999999 15.035733333333333C1.1269333333333331 15.804266666666665 1.5138666666666665 16.525066666666667 2.0072 17.1712L2.7104 17.926133333333333L2.5802666666666667 18.186666666666667C2.450133333333333 18.577333333333332 2.3458666666666668 18.96773333333333 2.2416 19.3584C2.1608 19.770933333333332 2.108533333333333 20.188533333333332 2.0853333333333333 20.608266666666665C2.0263999999999998 22.100266666666663 2.1930666666666667 23.5928 2.5802666666666667 25.03493333333333C2.9696 26.4952 3.6226666666666665 27.872 4.507199999999999 29.097066666666667C5.358666666666666 30.269066666666664 6.3082666666666665 31.366666666666664 7.3453333333333335 32.37813333333333C7.683999999999999 32.71653333333333 8.074399999999999 32.977066666666666 8.4392 33.315466666666666V36.31013333333333C8.4536 37.181599999999996 8.5232 38.051199999999994 8.647466666666666 38.91413333333333L10.548266666666667 47.97573333333333L10.886666666666665 51.699466666666666C10.8752 51.76826666666666 10.8752 51.83866666666666 10.886666666666665 51.907733333333326H11.069066666666666C11.136533333333333 51.804 11.214933333333331 51.708 11.303466666666667 51.62133333333333L11.042933333333332 51.95973333333333C10.815466666666666 52.23493333333333 10.6472 52.554133333333326 10.548266666666667 52.897333333333336C10.554666666666666 53.273599999999995 10.714666666666666 53.63119999999999 10.990933333333333 53.88666666666666C11.2152 54.1216 11.491733333333332 54.3 11.798133333333332 54.407466666666664C12.171466666666667 54.54133333333333 12.554400000000001 54.64586666666666 12.943999999999999 54.72C13.534933333333331 54.849066666666666 14.136 54.92746666666666 14.740533333333333 54.9544H17.34453333333333C20.912 54.66799999999999 24.531466666666663 54.9544 28.124799999999997 54.9544C29.7104 54.946133333333336 31.293599999999998 54.83306666666667 32.864 54.615733333333324C33.3224 54.57546666666667 33.654399999999995 54.160533333333326 33.593066666666665 53.70453333333333C33.557599999999994 53.44853333333333 33.389066666666665 53.230666666666664 33.1504 53.13146666666666C33.541066666666666 52.064 33.9056 51.022400000000005 34.19199999999999 49.928799999999995C34.34826666666666 49.35573333333333 34.50453333333333 48.78293333333333 34.6088 48.184C34.71653333333333 47.59013333333333 34.78613333333333 46.99013333333333 34.81706666666666 46.38746666666666C35.267466666666664 46.6528 35.748266666666666 46.86266666666666 36.249066666666664 47.01226666666666C36.614666666666665 47.1136 36.99013333333333 47.17466666666667 37.36879999999999 47.19466666666666C37.75866666666666 47.23333333333333 38.15093333333333 47.23333333333333 38.5408 47.19466666666666C39.3728 47.02693333333333 40.1616 46.690133333333335 40.85813333333333 46.20506666666666C41.014399999999995 46.90826666666666 41.17066666666666 47.6112 41.37893333333333 48.288266666666665S41.977866666666664 50.163199999999996 42.264266666666664 51.0744L42.7592 53.287733333333335V53.93893333333333C42.80239999999999 54.46613333333333 43.1328 54.92666666666666 43.618399999999994 55.13653333333333C45.0512 55.620000000000005 46.559733333333334 55.84053333333333 48.071200000000005 55.787733333333335C50.154399999999995 55.787733333333335 52.315466666666666 55.31893333333333 54.21653333333333 55.08453333333333C54.21653333333333 55.08453333333333 54.89333333333333 55.08453333333333 55.205866666666665 53.9648C56.956799999999994 49.86346666666666 58.92133333333334 45.8568 61.090933333333325 41.96053333333333C61.590933333333325 40.894666666666666 62.00026666666666 39.788266666666665 62.31466666666666 38.6536C63.925066666666666 33.004266666666666 63.669333333333334 26.98613333333333 61.5856 21.4936Z" fill="currentColor" fill-rule="evenodd" stroke-width="1"></path><path d="M18.620533333333334 23.550666666666665C18.681866666666664 23.104 18.365333333333332 22.69333333333333 17.917333333333332 22.639466666666667C17.321866666666665 22.415466666666664 16.7008 22.26693333333333 16.06853333333333 22.1968H14.506133333333333L12.084533333333333 22.691466666666663C11.686133333333332 22.6616 11.3432 22.96933333333333 11.329333333333333 23.368533333333332C11.328533333333333 23.751733333333334 11.624266666666665 24.070133333333334 12.0064 24.0976C12.605333333333334 24.305866666666663 13.074133333333332 24.540266666666668 13.673066666666665 24.722399999999997C13.6624 24.8872 13.6624 25.052533333333333 13.673066666666665 25.217333333333332C13.660266666666667 25.451466666666665 13.660266666666667 25.686133333333334 13.673066666666665 25.920266666666667C13.832533333333332 26.469066666666667 14.023733333333332 27.008266666666664 14.245866666666666 27.534666666666666C14.300266666666666 27.985599999999998 14.705599999999999 28.309599999999996 15.157333333333334 28.264C15.597066666666667 28.2096 15.917333333333334 27.820533333333334 15.886399999999998 27.378666666666664C15.886399999999998 26.857866666666666 16.1728 26.389066666666665 16.276799999999998 25.868266666666663C16.289866666666665 25.66 16.289866666666665 25.451466666666665 16.276799999999998 25.2432C16.2912 25.035199999999996 16.2912 24.8264 16.276799999999998 24.618399999999998C16.712 24.447733333333332 17.166933333333333 24.33413333333333 17.63093333333333 24.279733333333333C18.114933333333333 24.393333333333334 18.5856 24.046666666666667 18.620533333333334 23.550666666666665Z" fill="currentColor" fill-rule="evenodd" stroke-width="1"></path><path d="M21.4848 19.38453333333333C21.757866666666665 18.87173333333333 21.757866666666665 18.2568 21.4848 17.744C21.360266666666664 17.520533333333333 21.181066666666666 17.332266666666666 20.964 17.197066666666665C20.156799999999997 16.72853333333333 20.104799999999997 16.676266666666663 19.870399999999997 16.78053333333333C19.5128 16.869866666666667 19.17653333333333 17.029066666666665 18.8808 17.249333333333333C18.656533333333332 17.451466666666665 18.478666666666665 17.700266666666664 18.36 17.9784C18.11573333333333 18.517066666666665 18.1856 19.146666666666665 18.5424 19.618666666666666C18.900266666666667 20.092533333333332 19.458933333333334 20.372 20.052533333333333 20.373866666666665C20.666933333333333 20.308 21.205866666666665 19.93573333333333 21.4848 19.38453333333333Z" fill="currentColor" fill-rule="evenodd" stroke-width="1"></path><path d="M11.616 19.644799999999996C11.811733333333333 19.3528 11.911999999999999 19.006933333333333 11.9024 18.655466666666666C11.851733333333332 18.13733333333333 11.5992 17.660266666666665 11.1992 17.327466666666666C10.9032 17.059199999999997 10.494933333333332 16.952266666666667 10.105599999999999 17.040799999999997C9.968 17.072266666666664 9.836266666666667 17.125066666666665 9.714933333333333 17.197066666666665C9.381333333333332 17.367466666666665 9.081333333333333 17.596799999999998 8.8296 17.874133333333333C8.604 18.165599999999998 8.476266666666666 18.521066666666666 8.465066666666665 18.889599999999998C8.393866666666666 19.512 8.701333333333332 20.116799999999998 9.2464 20.426133333333333C9.7912 20.75333333333333 10.472266666666666 20.75333333333333 11.017066666666667 20.426133333333333C11.2776 20.218666666666664 11.483199999999998 19.9504 11.616 19.644799999999996Z" fill="currentColor" fill-rule="evenodd" stroke-width="1"></path></g></svg>