<svg xmlns="http://www.w3.org/2000/svg" viewBox="-0.5 -0.5 20 20" fill="currentColor" id="Virus--Streamline-Phosphor" height="20" width="20"><desc>Virus Streamline Icon: https://streamlinehq.com</desc><path d="M10.09375 8.015625a2.078125 2.078125 0 1 0 -2.078125 2.078125 2.078125 2.078125 0 0 0 2.078125 -2.078125Zm-2.078125 0.890625a0.890625 0.890625 0 1 1 0.890625 -0.890625 0.890625 0.890625 0 0 1 -0.890625 0.890625Zm5.046875 -0.59375a1.1875 1.1875 0 1 1 -1.1875 1.1875 1.1875 1.1875 0 0 1 1.1875 -1.1875Zm-2.375 4.75a1.1875 1.1875 0 1 1 -1.1875 -1.1875 1.1875 1.1875 0 0 1 1.1875 1.1875Zm7.125 -4.15625h-1.212734375a7.0893749999999995 7.0893749999999995 0 0 0 -1.6617578125 -4.0041015625l0.9195703125000001 -0.9195703125000001a0.59375 0.59375 0 0 0 -0.84015625 -0.84015625L14.1015625 4.0619921875a7.0893749999999995 7.0893749999999995 0 0 0 -4.0078125 -1.6617578125V1.1875a0.59375 0.59375 0 0 0 -1.1875 0v1.212734375a7.0893749999999995 7.0893749999999995 0 0 0 -4.0041015625 1.6617578125L3.982578125 3.142421875a0.59375 0.59375 0 0 0 -0.84015625 0.84015625l0.9195703125000001 0.9195703125000001a7.0893749999999995 7.0893749999999995 0 0 0 -1.6617578125 4.0078125H1.1875a0.59375 0.59375 0 0 0 0 1.1875h1.212734375A7.0893749999999995 7.0893749999999995 0 0 0 4.0619921875 14.1015625l-0.9195703125000001 0.915859375a0.59375 0.59375 0 0 0 0.84015625 0.84015625l0.9195703125000001 -0.9195703125000001a7.0893749999999995 7.0893749999999995 0 0 0 4.0078125 1.6617578125V17.8125a0.59375 0.59375 0 0 0 1.1875 0v-1.212734375A7.0893749999999995 7.0893749999999995 0 0 0 14.1015625 14.9380078125l0.9195703125000001 0.9195703125000001a0.59375 0.59375 0 0 0 0.84015625 -0.84015625L14.9380078125 14.1015625a7.0893749999999995 7.0893749999999995 0 0 0 1.6617578125 -4.0078125H17.8125a0.59375 0.59375 0 0 0 0 -1.1875Zm-8.3125 6.53125a5.9375 5.9375 0 1 1 5.9375 -5.9375 5.9441796875 5.9441796875 0 0 1 -5.9375 5.9375Z" stroke-width="1"></path></svg>