<svg xmlns="http://www.w3.org/2000/svg" fill="none" viewBox="-0.625 -0.625 20 20" id="Virus-Lab-Research-Magnifier-2--Streamline-Covid" height="20" width="20"><desc>Virus Lab Research Magnifier 2 Streamline Icon: https://streamlinehq.com</desc><path stroke="currentColor" stroke-linecap="round" stroke-linejoin="round" d="M8.29453125 10.81015625a2.515625 2.515625 0 1 0 0 -5.03125 2.515625 2.515625 0 0 0 0 5.03125Z" stroke-width="1.25"></path><path stroke="currentColor" stroke-linecap="round" stroke-linejoin="round" d="M7.875 3.8921875000000004h0.8390625" stroke-width="1.25"></path><path stroke="currentColor" stroke-linecap="round" stroke-linejoin="round" d="M8.29453125 3.8921875000000004v1.88671875" stroke-width="1.25"></path><path stroke="currentColor" stroke-linecap="round" stroke-linejoin="round" d="m11.1109375 4.88515625 0.59296875 0.59375" stroke-width="1.25"></path><path stroke="currentColor" stroke-linecap="round" stroke-linejoin="round" d="M11.407031250000001 5.18203125 10.0734375 6.515625" stroke-width="1.25"></path><path stroke="currentColor" stroke-linecap="round" stroke-linejoin="round" d="M12.696874999999999 7.875v0.8390625" stroke-width="1.25"></path><path stroke="currentColor" stroke-linecap="round" stroke-linejoin="round" d="M12.696874999999999 8.29453125h-1.88671875" stroke-width="1.25"></path><path stroke="currentColor" stroke-linecap="round" stroke-linejoin="round" d="m11.70390625 11.1109375 -0.59296875 0.59296875" stroke-width="1.25"></path><path stroke="currentColor" stroke-linecap="round" stroke-linejoin="round" d="m11.407031250000001 11.407031250000001 -1.3335937500000001 -1.3335937500000001" stroke-width="1.25"></path><path stroke="currentColor" stroke-linecap="round" stroke-linejoin="round" d="M8.7140625 12.696874999999999H7.875" stroke-width="1.25"></path><path stroke="currentColor" stroke-linecap="round" stroke-linejoin="round" d="M8.29453125 12.696874999999999v-1.88671875" stroke-width="1.25"></path><path stroke="currentColor" stroke-linecap="round" stroke-linejoin="round" d="m5.4781249999999995 11.70390625 -0.59296875 -0.59296875" stroke-width="1.25"></path><path stroke="currentColor" stroke-linecap="round" stroke-linejoin="round" d="m5.18203125 11.407031250000001 1.3335937500000001 -1.3335937500000001" stroke-width="1.25"></path><path stroke="currentColor" stroke-linecap="round" stroke-linejoin="round" d="M3.8921875000000004 8.7140625V7.875" stroke-width="1.25"></path><path stroke="currentColor" stroke-linecap="round" stroke-linejoin="round" d="M3.8921875000000004 8.29453125h1.88671875" stroke-width="1.25"></path><path stroke="currentColor" stroke-linecap="round" stroke-linejoin="round" d="m4.88515625 5.4781249999999995 0.59296875 -0.59296875" stroke-width="1.25"></path><path stroke="currentColor" stroke-linecap="round" stroke-linejoin="round" d="M5.18203125 5.18203125 6.515625 6.515625" stroke-width="1.25"></path><path stroke="currentColor" stroke-linecap="round" stroke-linejoin="round" d="M8.29453125 16.003125c4.2578125 0 7.70859375 -3.4515625 7.70859375 -7.70859375 0 -4.2578125 -3.4515625 -7.70859375 -7.70859375 -7.70859375C4.0367187499999995 0.5859375 0.5859375 4.0375000000000005 0.5859375 8.29453125c0 4.2578125 3.4515625 7.70859375 7.70859375 7.70859375Z" stroke-width="1.25"></path><path stroke="currentColor" stroke-linecap="round" stroke-linejoin="round" d="m18.1640625 18.1640625 -4.41875 -4.41875" stroke-width="1.25"></path></svg>