<svg xmlns="http://www.w3.org/2000/svg" viewBox="-0.5 -0.5 20 20" fill="currentColor" id="Crosshair--Streamline-Phosphor" height="20" width="20"><desc>Crosshair Streamline Icon: https://streamlinehq.com</desc><path d="M18.145 8.835h-0.6932625C17.122265625 4.955296484374999 14.044703515625 1.877734375 10.165000000000001 1.5482625V0.855c0 -0.51191640625 -0.554169140625 -0.831866015625 -0.9974999999999999 -0.5759078125 -0.20574921875000002 0.11879453125 -0.3325 0.338326171875 -0.3325 0.5759078125v0.6932625C4.955296484374999 1.877734375 1.877734375 4.955296484374999 1.5482625 8.835H0.855c-0.51191640625 0 -0.831866015625 0.554169140625 -0.5759078125 0.9974999999999999 0.118787109375 0.205741796875 0.33833359375 0.332492578125 0.5759078125 0.3325h0.6932625C1.877734375 14.044703515625 4.955296484374999 17.122265625 8.835 17.4517375v0.6932625c0 0.51191640625 0.554169140625 0.831866015625 0.9974999999999999 0.5759078125 0.20574921875000002 -0.11879453125 0.3325 -0.338326171875 0.3325 -0.5759078125v-0.6932625c3.8797035156249997 -0.32947187499999997 6.957265625 -3.407033984375 7.286737499999999 -7.286737499999999h0.6932625c0.51191640625 0 0.831866015625 -0.554169140625 0.5759078125 -0.9974999999999999 -0.11879453125 -0.20574921875000002 -0.338326171875 -0.3325 -0.5759078125 -0.3325Zm-7.9799999999999995 7.28175v-0.63175c0 -0.51191640625 -0.554169140625 -0.831866015625 -0.9974999999999999 -0.5759078125 -0.20574921875000002 0.11879453125 -0.3325 0.338326171875 -0.3325 0.5759078125v0.63175c-3.1445890625 -0.3208625 -5.630887499999999 -2.8071609375 -5.95175 -5.95175h0.63175c0.51191640625 0 0.831866015625 -0.554169140625 0.5759078125 -0.9974999999999999 -0.11879453125 -0.20574921875000002 -0.338326171875 -0.3325 -0.5759078125 -0.3325h-0.63175c0.3208625 -3.1445890625 2.8071609375 -5.630887499999999 5.95175 -5.95175v0.63175c0 0.51191640625 0.554169140625 0.831866015625 0.9974999999999999 0.5759078125 0.20574921875000002 -0.11879453125 0.3325 -0.338326171875 0.3325 -0.5759078125v-0.63175c3.1445890625 0.3208625 5.630887499999999 2.8071609375 5.95175 5.95175h-0.63175c-0.51191640625 0 -0.831866015625 0.554169140625 -0.5759078125 0.9974999999999999 0.11879453125 0.20574921875000002 0.338326171875 0.3325 0.5759078125 0.3325h0.63175c-0.3208625 3.1445890625 -2.8071609375 5.630887499999999 -5.95175 5.95175ZM9.5 6.175c-2.5595894531249996 0 -4.1593300781249996 2.770830859375 -2.8795316406249998 4.9875 1.279791015625 2.216669140625 4.479272265625 2.216669140625 5.7590632812499996 0 0.291835546875 -0.5054667968750001 0.445468359375 -1.0788437499999999 0.445468359375 -1.6624999999999999 0 -1.83635 -1.48865 -3.3249999999999997 -3.3249999999999997 -3.3249999999999997Zm0 5.32c-1.53574921875 0.000066796875 -2.495583203125 -1.6623886718749998 -1.7277679687499998 -2.99242578125 0.76782265625 -1.3300296875000002 2.68750546875 -1.33011875 3.4554468750000003 -0.0001484375 0.1751265625 0.303294921875 0.26732109375 0.6473507812500001 0.26732109375 0.9975742187500001 0 1.1017699218750001 -0.893230078125 1.994948046875 -1.9949999999999999 1.9949999999999999Z" stroke-width="1"></path></svg>