<svg xmlns="http://www.w3.org/2000/svg" fill="none" viewBox="-0.5 -0.5 24 24" id="Chrome--Streamline-Svg-Logos" height="24" width="24"><desc>Chrome Streamline Icon: https://streamlinehq.com</desc><path fill="#ffffff" d="M11.500383333333335 17.764936458333334c3.4603739583333337 0 6.265463541666667 -2.8052333333333332 6.265463541666667 -6.265583333333334 0 -3.4603739583333337 -2.8050895833333334 -6.265607291666667 -6.265463541666667 -6.265607291666667 -3.4603739583333337 0 -6.265463541666667 2.8052333333333332 -6.265463541666667 6.265607291666667 0 3.46035 2.8050895833333334 6.265583333333334 6.265463541666667 6.265583333333334Z" stroke-width="1"></path><path fill="#229342" d="M3.397004166666667 8.420635416666666c-0.46740312500000003 -0.8095520833333334 -1.0168156250000002 -1.6592583333333335 -1.6482398958333333 -2.5490947916666666 -0.9885471874999999 1.711703125 -1.5090635416666667 3.6534302083333334 -1.5090635416666667 5.630184375000001 0 1.9767302083333333 0.5202815625 3.91848125 1.5087089583333335 5.630160416666667C2.7368322916666665 18.843588541666666 4.15854375 20.265036458333334 5.8704625 21.253006250000002c1.7119187500000002 0.9879458333333333 3.653909375 1.5078656250000002 5.630519791666667 1.507434375 1.0363895833333334 -1.4536239583333335 1.7400697916666668 -2.501657291666667 2.1109927083333333 -3.144147916666667 0.7124729166666668 -1.2340697916666667 1.633934375 -3.000853125 2.764360416666667 -5.300373958333334v-0.0012937500000000002c-0.4938052083333334 0.8563666666666666 -1.204409375 1.5675697916666669 -2.0603208333333334 2.06209375 -1.7420104166666668 1.0064177083333334 -3.888701041666667 1.0067291666666667 -5.6309989583333335 0.0008145833333333333 -0.85603125 -0.494284375 -1.5668270833333333 -1.2052239583333333 -2.0608958333333334 -2.061375C5.088702083333334 11.452778125 4.013020833333334 9.487619791666667 3.397004166666667 8.420635416666666Z" stroke-width="1"></path><path fill="#FBC116" d="M11.50071875 22.759913541666666c1.976634375 0.00035937500000000005 3.91848125 -0.51994375 5.630304166666667 -1.5081291666666667 1.7117989583333333 -0.9881854166666667 3.1332708333333334 -2.409777083333333 4.1214562500000005 -4.121695833333334 0.9881375 -1.7118947916666667 1.5082010416666667 -3.6537895833333334 1.5078895833333334 -5.630400000000001 -0.00035937500000000005 -1.976634375 -0.5211177083333334 -3.9183614583333335 -1.5099020833333334 -5.6299447916666665 -2.13310625 -0.210234375 -3.707384375 -0.31533958333333334 -4.7228104166666665 -0.31533958333333334 -1.151365625 0 -2.827275 0.10510520833333334 -5.027752083333334 0.31533958333333334l-0.0011979166666666668 0.0008385416666666667c0.9884729166666667 -0.0004791666666666667 1.9596479166666665 0.259325 2.8158708333333333 0.7532739583333333 0.8562468750000001 0.4940447916666667 1.5672104166666667 1.2046489583333335 2.0616145833333337 2.0606802083333338 1.0061781250000001 1.7422020833333334 1.0061302083333332 3.888940625 -0.00011979166666666667 5.63111875L11.50071875 22.759913541666666Z" stroke-width="1"></path><path fill="#1A73E8" d="M11.500239583333332 15.958142708333334c2.461790625 0 4.457423958333334 -1.9956572916666668 4.457423958333334 -4.457567708333333 0 -2.461910416666667 -1.9956333333333331 -4.457423958333334 -4.457423958333334 -4.457423958333334 -2.461790625 0 -4.457447916666667 1.9956333333333331 -4.457447916666667 4.457423958333334 0 2.461790625 1.9956572916666668 4.457567708333333 4.457447916666667 4.457567708333333Z" stroke-width="1"></path><path fill="#E33B2E" d="M11.500311458333334 5.870103125h9.750562500000001c-0.9880656250000002 -1.7119187500000002 -2.4094177083333332 -3.1336302083333334 -4.121216666666666 -4.122048020833334C15.41790625 0.7596947916666668 13.476083333333333 0.23943335416666667 11.499472916666667 0.23958333333333334 9.5228625 0.23958333333333334 7.581111458333334 0.7602194791666668 5.869552083333334 1.7488840625000002 4.157920833333334 2.7374791666666667 2.7367364583333336 4.159334375 1.748910416666667 5.8714208333333335l4.875353125 8.444354166666667 0.0012937500000000002 0.0007187500000000001c-1.0067770833333334 -1.741866666666667 -1.0074479166666668 -3.8886052083333333 -0.0017729166666666668 -5.63111875 0.4940447916666667 -0.8561510416666668 1.2050083333333335 -1.5671145833333335 2.061015625 -2.0612552083333333 0.85603125 -0.4941645833333334 1.82720625 -0.7543520833333334 2.815751041666667 -0.7541364583333333l-0.00023958333333333335 0.00011979166666666667Z" stroke-width="1"></path></svg>