<svg t="1722163018715" class="icon" viewBox="0 0 1024 1024" version="1.1"
                                    xmlns="http://www.w3.org/2000/svg" p-id="12142" width="200" height="200">
                                    <path
                                        d="M956.8 128H67.2A67.2 67.2 0 0 0 0 195.2v633.6A67.2 67.2 0 0 0 67.2 896h889.6a67.2 67.2 0 0 0 67.2-67.2V195.2A67.2 67.2 0 0 0 956.8 128z m3.2 704H64V192h896v640z"
                                        fill="" p-id="12143"></path>
                                    <path
                                        d="M294.624 694.624l-45.248-45.248L386.752 512l-137.376-137.376 45.248-45.248L477.248 512z"
                                        fill="" p-id="12144"></path>
                                    <path d="M768 704h-256v-64h256v64z" fill="" p-id="12144"></path>
                                </svg>