<svg t="1719219479838" class="icon" viewBox="0 0 1450 1024" version="1.1"
                                        xmlns="http://www.w3.org/2000/svg" p-id="5099" width="200" height="200">
                                        <path
                                            d="M1055.229398 0c204.270977 0 352.3973 139.935005 352.3973 339.939672 0 5.972836-4.52229 10.83643-10.153821 10.83643h-122.869761c-9.04458 0-16.382635-7.423381-17.321223-17.065245-8.617949-114.166486-86.606116-192.325306-201.369886-192.325306-141.556204 0-221.250896 111.777352-221.250895 312.464628V575.098742c0 197.615532 79.950671 308.027664 221.165569 308.027664 114.337139 0 192.154654-73.039247 201.455212-179.35572 0.853262-9.471211 8.276644-16.894592 17.40655-16.894592h123.040413c5.631531 0 10.153821 4.863595 10.15382 10.83643 0 190.533456-148.808933 326.116824-352.3973 326.116824-238.401467 0-375.691359-168.775269-375.691359-449.498542V453.935505c0-282.771102 137.375219-453.850179 375.435381-453.850179zM552.31664 850.019832c20.136989 0 36.434297 16.638613 36.434297 37.202233v55.80335a36.860928 36.860928 0 0 1-36.434297 37.287559H79.097409a36.860928 36.860928 0 0 1-36.434298-37.287559v-55.80335c0-20.56362 16.297309-37.202233 36.434298-37.202233h473.219231zM461.358887 477.656195c20.051662 0 36.348971 16.638613 36.348971 37.202233v55.888676a36.860928 36.860928 0 0 1-36.348971 37.202234H79.097409A36.860928 36.860928 0 0 1 42.663111 570.832431v-55.888676c0-20.478293 16.297309-37.202233 36.434298-37.202233h382.261478z m90.957753-372.363636c20.136989 0 36.434297 16.72394 36.434297 37.287559v55.80335a36.860928 36.860928 0 0 1-36.434297 37.287559H79.097409A36.860928 36.860928 0 0 1 42.663111 198.383468v-55.80335c0-20.56362 16.297309-37.287559 36.434298-37.287559h473.219231z"
                                            fill="currentColor" p-id="5100"></path>
                                    </svg>