<svg xmlns="http://www.w3.org/2000/svg" xmlns:xlink="http://www.w3.org/1999/xlink" viewBox="0 0 32 32"><path d="M24 21h2v5h-2z" fill="currentColor"></path><path d="M20 16h2v10h-2z" fill="currentColor"></path><path d="M11 26a5.006 5.006 0 0 1-5-5h2a3 3 0 1 0 3-3v-2a5 5 0 0 1 0 10z" fill="currentColor"></path><path d="M28 2H4a2.002 2.002 0 0 0-2 2v24a2.002 2.002 0 0 0 2 2h24a2.003 2.003 0 0 0 2-2V4a2.002 2.002 0 0 0-2-2zm0 9H14V4h14zM12 4v7H4V4zM4 28V13h24l.002 15z" fill="currentColor"></path></svg>