<svg viewBox="-0.5 -0.5 20 20" fill="currentColor" xmlns="http://www.w3.org/2000/svg" id="Dingding-Line--Streamline-Remix" height="20" width="20"><desc>Dingding Line Streamline Icon: https://streamlinehq.com</desc><path d="M9.5 3.166666666666667c-3.4977970833333334 0 -6.333333333333334 2.8355283333333334 -6.333333333333334 6.333333333333334 0 3.497820833333334 2.83553625 6.333333333333334 6.333333333333334 6.333333333333334 3.497820833333334 0 6.333333333333334 -2.8355125000000005 6.333333333333334 -6.333333333333334 0 -3.4977970833333334 -2.8355125000000005 -6.333333333333334 -6.333333333333334 -6.333333333333334Zm0 -1.5833333333333335c4.372295833333333 0 7.916666666666668 3.5444262500000003 7.916666666666668 7.916666666666668 0 4.3722166666666675 -3.5444500000000003 7.916666666666668 -7.916666666666668 7.916666666666668 -4.372240416666667 0 -7.916666666666668 -3.5443708333333337 -7.916666666666668 -7.916666666666668C1.5833333333333335 5.1277437500000005 5.127759583333334 1.5833333333333335 9.5 1.5833333333333335Zm3.5549000000000004 7.1565875000000005 -0.0052250000000000005 0.0114c-0.33226250000000007 0.7108375000000001 -1.1996916666666668 2.1049625 -1.1996916666666668 2.1049625s-0.0011875000000000002 -0.003245833333333334 -0.004512500000000001 -0.008708333333333334l-0.25357083333333336 0.44127500000000003h1.2217l-2.333279166666667 3.1027000000000005 0.5297041666666668 -2.1106625h-0.9613208333333334l0.3340041666666667 -1.3957875c-0.270275 0.06523333333333334 -0.5895541666666667 0.15477083333333336 -0.9679708333333333 0.27645000000000003 0 0 -0.5117333333333334 0.299725 -1.4741625000000003 -0.5765708333333334 0 0 -0.6490954166666667 -0.5718208333333334 -0.272745 -0.7147958333333334 0.160075 -0.06072083333333334 0.7770366666666667 -0.1378291666666667 1.2625658333333334 -0.20345833333333335 0.6560541666666667 -0.08874583333333334 1.0596458333333334 -0.13569166666666668 1.0596458333333334 -0.13569166666666668s-2.022629166666667 0.030320833333333335 -2.502482083333333 -0.04520416666666667c-0.4799004166666667 -0.07544583333333334 -1.0886366666666667 -0.8762166666666668 -1.21828 -1.5800795833333334 0 0 -0.20056083333333335 -0.38646 0.4312129166666667 -0.20352958333333335 0.6317500000000001 0.18294625 3.247036666666667 0.7120883333333333 3.247036666666667 0.7120883333333333S6.546315416666668 7.37181 6.320025416666667 7.117463333333334c-0.22635333333333335 -0.2543625 -0.6661083333333334 -1.3886625000000001 -0.6088470833333334 -2.0856141666666668 0 0 0.024826666666666667 -0.17373916666666667 0.20299916666666667 -0.12722083333333337 0 0 2.51446 1.1489854166666666 4.2337225 1.7779566666666666 1.719341666666667 0.6289870833333334 3.214166666666667 0.9489787500000001 3.021079166666667 1.7633900000000002 -0.016545833333333333 0.06942916666666667 -0.05707916666666667 0.17115833333333336 -0.11407916666666668 0.29394583333333335Z" stroke-width="1"></path></svg>