<svg t="1738891652425" class="icon" viewBox="0 0 1024 1024" version="1.1" xmlns="http://www.w3.org/2000/svg" p-id="7265" width="200" height="200"><path d="M577.75317383 182.24536133v66.24755859h264.00146484v527.01416016H577.75317383v66.24755859H907.5078125V182.24536133z" fill="#1F7246" p-id="7266"></path><path d="M577.75317383 314.24609375h66.24755859v65.75317383H577.75317383z m98.87695312 0h98.87695313v65.75317383h-98.87695313z m-98.87695312 98.87695313h66.24755859v65.75317382H577.75317383z m98.87695312-1e-8h98.87695313v65.75317383h-98.87695313z m-98.87695312 98.87695313h66.24755859v65.75317383H577.75317383z m98.87695312 0h98.87695313v65.75317383h-98.87695313z m-98.87695312 98.87695312h66.24755859v65.75317383H577.75317383z m98.87695312 0h98.87695313v65.75317383h-98.87695313z m0 0l-98.87695312 296.63085938L116.4921875 799.23754883V224.76245117L577.75317383 116.4921875v791.015625z m-279.82177734 65.75317383l75.64086914 4.94384766-87.50610352-166.11328125 85.52856446-164.63012695-71.68579102 4.44946289-43.50585937 98.87695312a46.47216797 46.47216797 0 0 0-4.94384766 13.84277344 63.28125 63.28125 0 0 1-3.46069336 13.84277344 132.49511719 132.49511719 0 0 0-2.96630859-14.33715821 56.35986328 56.35986328 0 0 0-4.44946289-12.8540039L299.90893555 363.68457031l-69.21386719 3.95507813 74.15771484 149.30419922-80.58471679 150.78735351 67.23632812 3.46069336 44.98901367-98.87695312v-22.24731446a8.40454102 8.40454102 0 0 0 0 6.92138672V561.43847656a21.75292969 21.75292969 0 0 0 2.9663086 7.91015625l49.43847656 105.30395508z" fill="#1F7246" p-id="7267"></path></svg>