<svg xmlns="http://www.w3.org/2000/svg" xmlns:xlink="http://www.w3.org/1999/xlink" viewBox="0 0 512 512"><path d="M63.28 202a15.29 15.29 0 0 1-7.7-2a14.84 14.84 0 0 1-5.52-20.46C69.34 147.36 128 72.25 256 72.25c55.47 0 104.12 14.57 144.53 43.29c33.26 23.57 51.9 50.25 60.78 63.1a14.79 14.79 0 0 1-4 20.79a15.52 15.52 0 0 1-21.24-4C420 172.32 371 102 256 102c-112.25 0-163 64.71-179.53 92.46A15 15 0 0 1 63.28 202z" fill="currentColor"></path><path d="M320.49 496a15.31 15.31 0 0 1-3.79-.43c-92.85-23-127.52-115.82-128.93-119.68l-.22-.85c-.76-2.68-19.39-66.33 9.21-103.61c13.11-17 33.05-25.72 59.38-25.72c24.48 0 42.14 7.61 54.28 23.36c10 12.86 14 28.72 17.87 44c8.13 31.82 14 48.53 47.79 50.25c14.84.75 24.59-7.93 30.12-15.32c14.95-20.15 17.55-53 6.28-82C398 228.57 346.61 158 256 158c-38.68 0-74.22 12.43-102.72 35.79c-23.59 19.35-42.28 46.67-51.28 74.75c-16.69 52.28 5.2 134.46 5.41 135.21A14.83 14.83 0 0 1 96.54 422a15.39 15.39 0 0 1-18.74-10.6c-1-3.75-24.38-91.4-5.1-151.82c21-65.47 85.81-131.47 183.33-131.47c45.07 0 87.65 15.32 123.19 44.25c27.52 22.5 50 52.72 61.76 82.93c14.95 38.57 10.94 81.86-10.19 110.14c-14.08 18.86-34.13 28.72-56.34 27.65c-57.86-2.9-68.26-43.29-75.84-72.75c-7.8-30.22-12.79-44.79-42.58-44.79c-16.36 0-27.85 4.5-35 13.82c-9.75 12.75-10.51 32.68-9.43 47.14a152.44 152.44 0 0 0 5.1 29.79c2.38 6 33.37 82 107.59 100.39a14.88 14.88 0 0 1 11 18.11a15.36 15.36 0 0 1-14.8 11.21z" fill="currentColor"></path><path d="M201.31 489.14a15.5 15.5 0 0 1-11.16-4.71c-37.16-39-58.18-82.61-66.09-137.14V347c-4.44-36.1 2.06-87.21 33.91-122.35c23.51-25.93 56.56-39.11 98.06-39.11c49.08 0 87.65 22.82 111.7 65.89c17.45 31.29 20.91 62.47 21 63.75a15.07 15.07 0 0 1-13.65 16.4a15.26 15.26 0 0 1-16.79-13.29A154 154 0 0 0 340.43 265c-18.64-32.89-47-49.61-84.51-49.61c-32.4 0-57.75 9.75-75.19 29c-25.14 27.75-30 70.5-26.55 98.78c6.93 48.22 25.46 86.58 58.18 120.86a14.7 14.7 0 0 1-.76 21.11a15.44 15.44 0 0 1-10.29 4z" fill="currentColor"></path><path d="M372.5 446.18c-32.5 0-60.13-9-82.24-26.89c-44.42-35.79-49.4-94.08-49.62-96.54a15.27 15.27 0 0 1 30.45-2.36c.11.86 4.55 48.54 38.79 76c20.26 16.18 47.34 22.6 80.71 18.85a15.2 15.2 0 0 1 16.91 13.18a14.92 14.92 0 0 1-13.44 16.5a187 187 0 0 1-21.56 1.26z" fill="currentColor"></path><path d="M398.18 48.79C385.5 40.54 340.54 16 256 16c-88.74 0-133.81 27.11-143.78 34a11.59 11.59 0 0 0-1.84 1.4a.36.36 0 0 1-.22.1a14.87 14.87 0 0 0-5.09 11.15a15.06 15.06 0 0 0 15.31 14.85a15.56 15.56 0 0 0 8.88-2.79c.43-.32 39.22-28.82 126.77-28.82S382.58 74.29 383 74.5a15.25 15.25 0 0 0 9.21 3a15.06 15.06 0 0 0 15.29-14.89a14.9 14.9 0 0 0-9.32-13.82z" fill="currentColor"></path></svg>