<svg xmlns="http://www.w3.org/2000/svg" viewBox="-0.5 -0.5 20 20" fill="currentColor" aria-hidden="true" id="Finger-Print--Streamline-Heroicons" height="20" width="20"><desc>Finger Print Streamline Icon: https://streamlinehq.com</desc><path fill-rule="evenodd" d="M10.049733333333334 1.6236291666666667C8.784729166666668 1.6213333333333335 7.547275000000001 1.9931 6.492854166666667 2.6919833333333334C6.042000000000001 3.0099958333333334 5.4159500000000005 2.7205625 5.366075 2.171066666666667C5.341533333333334 1.9011875000000003 5.471366666666667 1.640491666666667 5.701583333333334 1.4974375000000002C10.764291666666667 -1.8497291666666669 17.551883333333336 1.5386833333333334 17.919295833333333 7.596675000000001C17.928954166666667 7.755958333333335 17.933783333333334 7.915558333333334 17.933783333333334 8.075158333333334C17.933783333333334 10.955400000000001 17.385237500000002 13.710558333333335 16.38567916666667 16.23914166666667C16.1766 16.749766666666666 15.493154166666669 16.84255 15.155508333333334 16.406183333333335C15.002716666666668 16.208662500000003 14.9636875 15.945908333333334 15.0525125 15.712604166666669C16.012566666666668 13.280525000000003 16.503795833333335 10.688845833333334 16.500312500000003 8.074208333333335C16.500312500000003 4.511470833333333 13.612470833333335 1.6234708333333334 10.049733333333334 1.6236291666666667ZM4.465950000000001 3.5243416666666674C4.795916666666667 3.743316666666667 4.8858500000000005 4.188391666666667 4.6666375 4.5182C3.968229166666667 5.5724625 3.596858333333334 6.8096000000000005 3.5992333333333337 8.074208333333335C3.5992333333333337 9.615583333333335 3.1567708333333333 11.055783333333334 2.390358333333334 12.272258333333333C2.0960958333333335 12.739420833333334 1.4064750000000001 12.712820833333334 1.1490250000000002 12.224441666666667C1.0295625000000002 11.997787500000001 1.0400916666666669 11.724583333333335 1.1766541666666668 11.507745833333335C1.824791666666667 10.480004166666667 2.1677416666666667 9.289258333333335 2.1657625 8.074208333333335C2.1657625 6.468708333333334 2.6464625000000006 4.972141666666667 3.4720916666666666 3.7259791666666673C3.6907500000000004 3.3956958333333334 4.135904166666667 3.305366666666667 4.465950000000001 3.5243416666666674ZM10.049733333333334 5.207266666666667C8.4664 5.207266666666667 7.182870833333334 6.490795833333334 7.182870833333334 8.074208333333335C7.182870833333334 11.036625 6.059020833333334 13.738266666666668 4.215625 15.772770833333336C3.844808333333334 16.181825000000003 3.1703083333333337 16.036079166666667 3.001445833333334 15.510491666666667C2.9231500000000006 15.266579166666666 2.9808625 14.999312500000002 3.152891666666667 14.809550000000002C4.827187500000001 12.966233333333333 5.753120833333334 10.564316666666668 5.7494000000000005 8.074208333333335C5.744887500000001 4.763775000000001 9.325754166666668 2.6898458333333335 12.194912500000001 4.341183333333333C13.5301375 5.109654166666667 14.352204166666668 6.533625000000001 14.350145833333334 8.074208333333335C14.350145833333334 8.596945833333333 14.329087500000004 9.115804166666667 14.286100000000001 9.6280125C14.240895833333333 10.177904166666666 13.617300000000002 10.472641666666668 13.163675000000001 10.158508333333334C12.953170833333333 10.012762500000001 12.836479166666669 9.765683333333333 12.857458333333334 9.510529166666666C12.896645833333336 9.037429166666668 12.916675000000001 8.558708333333334 12.916675000000001 8.074129166666667C12.916675000000001 6.490795833333334 11.633145833333334 5.2071875 10.049733333333334 5.207266666666667ZM10.049733333333334 7.357433333333334C10.445566666666668 7.357433333333334 10.766508333333334 7.678375000000001 10.766508333333334 8.074208333333335C10.766508333333334 11.808816666666667 9.405633333333334 15.227154166666669 7.153262500000001 17.858020833333335C6.794558333333334 18.27736666666667 6.1164958333333335 18.151175000000002 5.932670833333334 17.63089166666667C5.847408333333334 17.3895125 5.897362500000001 17.120900000000002 6.063770833333335 16.92622916666667C8.178154166666667 14.462087500000003 9.338183333333335 11.321070833333334 9.3330375 8.074208333333335C9.3330375 7.678295833333334 9.6539 7.357433333333334 10.049733333333334 7.357433333333334ZM13.145070833333333 12.310495833333334C13.525545833333336 12.419350000000001 13.745866666666668 12.815895833333336 13.63725 13.196370833333335C13.098916666666668 15.081883333333334 12.265133333333335 16.870020833333335 11.166933333333334 18.494441666666667C10.857945833333334 18.95162916666667 10.169908333333334 18.90294166666667 9.928450000000002 18.406804166666667C9.81635 18.176508333333334 9.835666666666667 17.9039375 9.9790375 17.691691666666667C10.9926875 16.192750000000004 11.762345833333335 14.5426 12.259195833333335 12.802675000000002C12.367970833333334 12.422200000000002 12.764595833333335 12.201879166666668 13.145070833333333 12.310495833333334Z" clip-rule="evenodd" stroke-width="1"></path></svg>