<svg t="1718684294104" class="icon" viewBox="0 0 1024 1024" version="1.1" xmlns="http://www.w3.org/2000/svg" p-id="8655" width="200" height="200"><path d="M0 0m224.233577 0l575.532846 0q224.233577 0 224.233577 224.233577l0 575.532846q0 224.233577-224.233577 224.233577l-575.532846 0q-224.233577 0-224.233577-224.233577l0-575.532846q0-224.233577 224.233577-224.233577Z" fill="#D4E4E9" p-id="8656"></path><path d="M37.372263 37.372263m190.59854 0l568.058394 0q190.59854 0 190.59854 190.59854l0 568.058394q0 190.59854-190.59854 190.59854l-568.058394 0q-190.59854 0-190.59854-190.59854l0-568.058394q0-190.59854 190.59854-190.59854Z" fill="#000000" p-id="8657"></path><path d="M115.854015 115.854015m112.116788 0l568.058394 0q112.116788 0 112.116788 112.116788l0 568.058394q0 112.116788-112.116788 112.116788l-568.058394 0q-112.116788 0-112.116788-112.116788l0-568.058394q0-112.116788 112.116788-112.116788Z" fill="#222B2D" p-id="8658"></path><path d="M220.197372 160.760526h19.373781v27.98435c5.381606 0.538161 10.942599 1.614482 16.682978 3.228963a86.830715 86.830715 0 0 1 17.221139 6.996088l-7.803328 20.719182c-12.198307-6.457927-24.127533-9.686891-35.787679-9.68689-8.072409 0-14.709723 1.793869-19.911942 5.381606-5.022832 3.587737-7.534248 8.969343-7.534248 16.144817 0 6.637314 2.242336 11.570453 6.727007 14.799416 4.664058 3.049577 11.121985 5.919766 19.373781 8.61057l12.377694 4.036204c13.812788 4.484672 24.217226 10.494131 31.213314 18.02838 7.175474 7.534248 10.763212 17.131445 10.763211 28.791591 0 6.457927-1.166015 12.377693-3.498044 17.759299a44.458044 44.458044 0 0 1-9.95597 13.992175c-4.125898 3.946511-9.059036 7.175474-14.799416 9.686891-5.74038 2.511416-12.108613 4.125898-19.104701 4.843445v29.060672H216.161168v-29.060672c-8.072409-0.358774-15.247883-1.524788-21.526423-3.498044-6.27854-1.973255-12.826161-4.843445-19.642862-8.610569l9.686891-20.719182c7.175474 4.305285 14.171562 7.265168 20.988262 8.879649 6.996088 1.614482 13.364321 2.421723 19.104701 2.421723 8.969343 0 16.234511-1.883562 21.795504-5.650686 5.560993-3.767124 8.341489-9.41781 8.341489-16.952059 0-6.637314-2.332029-11.749839-6.996088-15.337576-4.664058-3.767124-11.839533-7.175474-21.526423-10.225051l-12.915854-4.305285a97.788263 97.788263 0 0 1-15.875737-6.457927 57.272993 57.272993 0 0 1-12.377694-8.87965 40.997372 40.997372 0 0 1-8.072408-12.377693c-1.973255-4.664058-2.959883-9.955971-2.959884-15.875737 0-13.454015 4.215591-24.127533 12.646774-32.020555 8.431182-8.072409 19.553168-12.646774 33.365956-13.723095v-27.98435z" fill="#6BE34D" p-id="8659"></path><path d="M332.613139 160.70073h112.116788v216.759124H332.613139z" fill="#35712C" p-id="8660"></path></svg>