<svg t="1721800148219" class="icon" viewBox="0 0 1024 1024" version="1.1"
                            xmlns="http://www.w3.org/2000/svg" p-id="7164" xmlns:xlink="http://www.w3.org/1999/xlink"
                            width="200" height="200">
                            <path
                                d="M812.3 959.4H213.7c-81.6 0-148-66.4-148-148V212.9c0-81.6 66.4-148 148-148h598.5c81.6 0 148 66.4 148 148v598.5C960.3 893 893.9 959.4 812.3 959.4zM213.7 120.9c-50.7 0-92 41.3-92 92v598.5c0 50.7 41.3 92 92 92h598.5c50.7 0 92-41.3 92-92V212.9c0-50.7-41.3-92-92-92H213.7z"
                                fill="" p-id="7165"></path>
                        </svg>