<svg t="1727713883657" class="icon" viewBox="0 0 1024 1024" version="1.1" xmlns="http://www.w3.org/2000/svg" p-id="1459" width="200" height="200"><path d="M737.578 113.11h45.03c131.393 0 128.359 47.89 128.354 120.39 0 0-0.004 517.5 0 552 0.006 48.167-5.561 72.146-12.462 86.5-12.5 26-41.68 30.861-78.5 34.5-28.667 2.833-53.5-4.5-53.5-4.5-27.5-12-18.922-73-18.922-73s24.089 5.334 39.422-6.666c15.328-11.996 17.034-21.135 25.823-44.47 7.613-20.213 5.785-539.754 5.785-539.754 0-30.327-24.673-55-55-55h-35.03" p-id="1460"></path><path d="M468 157v26.11h260.578l19-70H491.583C466.125 114.25 468 157 468 157zM711.578 712.109h-467.97c-59.275 0-55-26.778-55-55V460.873c-28.679 0.804-53.349-1.255-70-3.326V701.11c0 68.925 14.001 133.465 125 125h503.97l-1-39c0-0.001 1-59.11-35-75.001zM188.608 396.311V238.11c0-30.327 24.673-55 55-55h148.419c-0.005-42.616 2.722-67.61-12.528-70H243.608c-104.608 0-125 44.89-125 125V390c25.636 4.96 48.894 6.849 70 6.311z" p-id="1461"></path><path d="M387 237s-32.284 155.077-198.392 159.311v64.562C295.711 457.871 458.646 414.896 468 183.11h-75.972c-0.24 15.085-1.704 32.907-5.028 53.89z" p-id="1462"></path><path d="M673 396.399m-70.399 0a70.399 70.399 0 1 0 140.798 0 70.399 70.399 0 1 0-140.798 0Z" p-id="1463"></path></svg>