<svg xmlns="http://www.w3.org/2000/svg" xmlns:xlink="http://www.w3.org/1999/xlink" viewBox="0 0 32 32"><circle cx="26" cy="26" r="4" fill="currentColor"></circle><path d="M10 13h2v2h-2z" fill="currentColor"></path><path d="M10 18h2v2h-2z" fill="currentColor"></path><path d="M10 23h2v2h-2z" fill="currentColor"></path><path d="M14 13h8v2h-8z" fill="currentColor"></path><path d="M14 18h8v2h-8z" fill="currentColor"></path><path d="M14 23h4v2h-4z" fill="currentColor"></path><path d="M7 28V7h3v3h12V7h3v11h2V7a2 2 0 0 0-2-2h-3V4a2 2 0 0 0-2-2h-8a2 2 0 0 0-2 2v1H7a2 2 0 0 0-2 2v21a2 2 0 0 0 2 2h11v-2zm5-24h8v4h-8z" fill="currentColor"></path></svg>