<svg t="1724150865485" class="icon" viewBox="0 0 1027 1024" version="1.1" xmlns="http://www.w3.org/2000/svg" p-id="4949" width="200" height="200"><path d="M260.3 352.3c-13.6 0-24.6-11-24.6-24.6s11-24.6 24.6-24.6c13.6 0 24.6 11 24.6 24.6 0 13.6-11 24.6-24.6 24.6z m0-126.7c-57.8-1.4-105.9 44.3-107.3 102.2S197.3 433.6 255.1 435 361 390.7 362.4 332.9v-5.7c-1.4-55.8-46.3-100.8-102.1-102.1v0.5z" p-id="4950"></path><path d="M1005.8 550.1l-3.9-4.3-0.5 1.2L564.7 79.9c-10.5-11.3-25.1-17.8-40-17.9H80C36.2 62 0.3 99.7 0 146v290.3c0.1 15.7 5.9 30.6 16.4 41.8l440 459.7c15.2 15.6 35.3 24.3 56.5 24.3 21.2 0 41.3-8.6 56.5-24.3l31.7-33.6 31.8 33.6c15.2 15.6 35.3 24.3 56.5 24.3 21.2 0 41.3-8.6 56.5-24.3L1004.1 668c31.2-32 31.9-84.9 1.7-117.9zM827.7 667.9c14.5-15.7 22.5-36.4 22.5-58.3s-8-42.7-22.5-58.4L456.2 152.4h56.9l428.1 456-251 261.1-27.7-28 165.2-173.6z m-65.1-60l-169 175.4-44.5 47.1-36 37.5-427.6-445v-271h249.9l427.2 456z" p-id="4951"></path></svg>