<svg t="1719760188900" viewBox="0 0 1024 1024" version="1.1" xmlns="http://www.w3.org/2000/svg" p-id="17110" width="200" height="200"><path d="M378.112 481.536H159.488c-51.2 0-92.928-41.728-92.928-92.928V169.984c0-51.2 41.728-92.928 92.928-92.928h218.624c51.2 0 92.928 41.728 92.928 92.928v218.624c0 51.2-41.728 92.928-92.928 92.928zM159.488 138.752c-17.408 0-31.488 14.08-31.488 31.488v218.624c0 17.408 14.08 31.488 31.488 31.488h218.624c17.408 0 31.488-14.08 31.488-31.488V169.984c0-17.408-14.08-31.488-31.488-31.488H159.488zM378.112 949.504H159.488c-51.2 0-92.928-41.728-92.928-92.928v-218.624c0-51.2 41.728-92.928 92.928-92.928h218.624c51.2 0 92.928 41.728 92.928 92.928v218.624c0 51.456-41.728 92.928-92.928 92.928zM159.488 606.72c-17.408 0-31.488 14.08-31.488 31.488v218.624c0 17.408 14.08 31.488 31.488 31.488h218.624c17.408 0 31.488-14.08 31.488-31.488v-218.624c0-17.408-14.08-31.488-31.488-31.488H159.488zM680.448 480l-143.616-144.128c-33.536-33.792-33.536-88.576 0.256-122.112l144.128-143.616c33.792-33.536 88.576-33.536 122.112 0.256l143.616 144.128c33.536 33.792 33.536 88.576-0.256 122.112l-144.128 143.616c-33.792 33.536-88.32 33.536-122.112-0.256zM762.88 110.848c-11.264-11.52-29.952-11.52-41.216 0l-144.128 143.616c-11.52 11.264-11.52 29.952 0 41.216l143.616 144.128c11.264 11.52 29.952 11.52 41.216 0l144.128-143.616c11.52-11.264 11.52-29.952 0-41.216L762.88 110.848zM840.96 949.504l-218.624-0.512c-51.2 0-92.672-41.728-92.672-92.928l0.512-218.624c0-51.2 41.728-92.672 92.928-92.672l218.624 0.512c51.2 0 92.672 41.728 92.672 92.928l-0.512 218.624c0 51.2-41.728 92.928-92.928 92.672z m-217.856-343.04c-17.408 0-31.488 14.08-31.488 31.232l-0.512 218.624c0 17.408 14.08 31.488 31.232 31.488l218.624 0.512c17.408 0 31.488-14.08 31.488-31.232l0.512-218.624c0-17.408-14.08-31.488-31.232-31.488l-218.624-0.512z" p-id="17111"></path></svg>