<svg xmlns="http://www.w3.org/2000/svg" xmlns:xlink="http://www.w3.org/1999/xlink" viewBox="0 0 24 24"><g fill="none"><path d="M18.75 3A3.25 3.25 0 0 1 22 6.25v11.5A3.25 3.25 0 0 1 18.75 21H5.25A3.25 3.25 0 0 1 2 17.75V6.25A3.25 3.25 0 0 1 5.25 3h13.5zm0 1.5H5.25A1.75 1.75 0 0 0 3.5 6.25v11.5c0 .966.784 1.75 1.75 1.75h13.5a1.75 1.75 0 0 0 1.75-1.75V6.25a1.75 1.75 0 0 0-1.75-1.75zm-12.002 2h10.506a.75.75 0 0 1 .102 1.493L17.254 8H6.748a.75.75 0 0 1-.101-1.493l.101-.007h10.506H6.748z" fill="currentColor"></path></g></svg>