<svg viewBox="-0.5 -0.5 20 20" fill="currentColor" xmlns="http://www.w3.org/2000/svg" id="Wechat-2-Line--Streamline-Remix" height="20" width="20"><desc>Wechat 2 Line Streamline Icon: https://streamlinehq.com</desc><path d="M6.861572916666667 9.113191666666667c-0.5678466666666667 0 -1.0174025 -0.4498250000000001 -1.0174025 -1.0180041666666668 0 -0.5681475 0.4495558333333334 -1.0179408333333333 1.0174025 -1.0179408333333333 0.5678545833333334 0 1.0174025 0.4497933333333334 1.0174025 1.0179408333333333 0 0.5681791666666667 -0.44954791666666666 1.0180041666666668 -1.0174025 1.0180041666666668Zm5.277764583333334 0c-0.5678625 0 -1.0173708333333333 -0.4498250000000001 -1.0173708333333333 -1.0180041666666668 0 -0.5681475 0.44950833333333334 -1.0179408333333333 1.0173708333333333 -1.0179408333333333 0.5678625 0 1.01745 0.4497933333333334 1.01745 1.0179408333333333 0 0.5681791666666667 -0.44958750000000003 1.0180041666666668 -1.01745 1.0180041666666668Zm-6.737882916666668 6.098920833333334 0.5664533333333335 -0.34548333333333336c0.6410204166666668 -0.390925 1.40011 -0.5414208333333334 2.1417670833333333 -0.4245708333333334 0.16743750000000002 0.026362500000000004 0.30510833333333337 0.04662916666666667 0.41135 0.06064166666666667 0.32157500000000006 0.04243333333333334 0.6486916666666668 0.06396666666666667 0.9794500000000002 0.06396666666666667 3.499720833333334 0 6.254166666666667 -2.3927333333333336 6.254166666666667 -5.2250000000000005 0 -2.8323062500000002 -2.7544458333333335 -5.225039583333334 -6.254166666666667 -5.225039583333334 -3.4997525000000005 0 -6.2541745833333335 2.3927333333333336 -6.2541745833333335 5.225039583333334 0 1.0810208333333333 0.39555625 2.115966666666667 1.1334133333333334 2.9932125000000003 0.03822958333333334 0.04544166666666667 0.09539583333333333 0.10830000000000001 0.16972541666666668 0.18572500000000003 0.62963625 0.6557375000000001 0.9471104166666667 1.5504 0.8716170833333333 2.456304166666667l-0.01960166666666667 0.23520416666666666Zm-0.49877375 2.158875c-0.14485125000000001 0.09048750000000001 -0.3150991666666667 0.13173333333333334 -0.48533125000000005 0.1175625 -0.4357095833333334 -0.03625833333333334 -0.7594933333333334 -0.41895000000000004 -0.7231875000000001 -0.8546833333333334l0.14903125 -1.788454166666667c0.03774666666666667 -0.45299166666666674 -0.12099041666666667 -0.9002833333333334 -0.4358045833333334 -1.2281125 -0.09671791666666668 -0.10077916666666667 -0.17651 -0.18849583333333336 -0.23937625000000004 -0.2632291666666667C2.221590833333334 12.228875 1.6629670833333334 10.841954166666667 1.6629670833333334 9.341666666666669c0 -3.760179166666667 3.5089675000000007 -6.808372916666667 7.8375079166666675 -6.808372916666667 4.328516666666667 0 7.837500000000001 3.0481937500000003 7.837500000000001 6.808372916666667 0 3.7601000000000004 -3.508983333333334 6.808333333333334 -7.837500000000001 6.808333333333334 -0.4033541666666667 0 -0.7995833333333334 -0.026520833333333337 -1.18655 -0.07758333333333334 -0.12088750000000001 -0.015912500000000003 -0.27114583333333336 -0.038000000000000006 -0.4506483333333334 -0.06634166666666667 -0.3708483333333334 -0.05842500000000001 -0.7503891666666668 0.016862500000000002 -1.0708954166666669 0.212325l-1.8897004166666669 1.1525875Z" stroke-width="1"></path></svg>