<svg t="1712903814884" viewBox="0 0 1024 1024" version="1.1"
                                        xmlns="http://www.w3.org/2000/svg" p-id="2765" width="1.5em" height="1.5em">
                                        <path
                                            d="M468 128H160c-17.7 0-32 14.3-32 32v308c0 4.4 3.6 8 8 8h332c4.4 0 8-3.6 8-8V136c0-4.4-3.6-8-8-8z m-56 284H192V192h220v220z m-138-74h56c4.4 0 8-3.6 8-8v-56c0-4.4-3.6-8-8-8h-56c-4.4 0-8 3.6-8 8v56c0 4.4 3.6 8 8 8z m194 210H136c-4.4 0-8 3.6-8 8v308c0 17.7 14.3 32 32 32h308c4.4 0 8-3.6 8-8V556c0-4.4-3.6-8-8-8z m-56 284H192V612h220v220z m-138-74h56c4.4 0 8-3.6 8-8v-56c0-4.4-3.6-8-8-8h-56c-4.4 0-8 3.6-8 8v56c0 4.4 3.6 8 8 8z m590-630H556c-4.4 0-8 3.6-8 8v332c0 4.4 3.6 8 8 8h332c4.4 0 8-3.6 8-8V160c0-17.7-14.3-32-32-32z m-32 284H612V192h220v220z m-138-74h56c4.4 0 8-3.6 8-8v-56c0-4.4-3.6-8-8-8h-56c-4.4 0-8 3.6-8 8v56c0 4.4 3.6 8 8 8z m194 210h-48c-4.4 0-8 3.6-8 8v134h-78V556c0-4.4-3.6-8-8-8H556c-4.4 0-8 3.6-8 8v332c0 4.4 3.6 8 8 8h48c4.4 0 8-3.6 8-8V644h78v102c0 4.4 3.6 8 8 8h190c4.4 0 8-3.6 8-8V556c0-4.4-3.6-8-8-8zM746 832h-48c-4.4 0-8 3.6-8 8v48c0 4.4 3.6 8 8 8h48c4.4 0 8-3.6 8-8v-48c0-4.4-3.6-8-8-8z m142 0h-48c-4.4 0-8 3.6-8 8v48c0 4.4 3.6 8 8 8h48c4.4 0 8-3.6 8-8v-48c0-4.4-3.6-8-8-8z"
                                            fill="#1296DB" p-id="2766"></path>
                                    </svg>